<svg width="32" height="33" viewBox="0 0 32 33" fill="none" xmlns="http://www.w3.org/2000/svg">
<g clip-path="url(#clip0_3643_10895)">
<path d="M15.8531 15.1213C17.9223 15.1213 19.5998 13.4438 19.5998 11.3746C19.5998 9.30537 17.9223 7.62793 15.8531 7.62793C13.7839 7.62793 12.1064 9.30537 12.1064 11.3746C12.1064 13.4438 13.7839 15.1213 15.8531 15.1213Z" stroke="#231F20" stroke-width="1.33333" stroke-miterlimit="10"/>
<path d="M22.1461 25.6813C24.2153 25.6813 25.8927 24.0039 25.8927 21.9347C25.8927 19.8654 24.2153 18.188 22.1461 18.188C20.0769 18.188 18.3994 19.8654 18.3994 21.9347C18.3994 24.0039 20.0769 25.6813 22.1461 25.6813Z" stroke="#231F20" stroke-width="1.33333" stroke-miterlimit="10"/>
<path d="M9.85311 25.841C11.9223 25.841 13.5998 24.1636 13.5998 22.0943C13.5998 20.0251 11.9223 18.3477 9.85311 18.3477C7.78389 18.3477 6.10645 20.0251 6.10645 22.0943C6.10645 24.1636 7.78389 25.841 9.85311 25.841Z" stroke="#231F20" stroke-width="1.33333" stroke-miterlimit="10"/>
</g>
<defs>
<clipPath id="clip0_3643_10895">
<rect width="32" height="32" fill="white" transform="translate(0 0.734863)"/>
</clipPath>
</defs>
</svg>
